<?xml version="1.0" encoding="UTF-8"?>
<svg id="Capa_1" data-name="Capa 1" xmlns="http://www.w3.org/2000/svg" viewBox="0 0 415.3 415.3">
  <defs>
    <style>
      .cls-1 {
        fill: #fff;
      }
    </style>
  </defs>
  <path class="cls-1" d="m4.06,381.8c28.2,11,55.7,25.7,86.3,30,4.3.6,9.2-3.7,6.1-8-6.1-9.8-11-20.2-16.5-30,161.6-10.4,326.8-170.1,331.7-336,1.3-6.8,3.1-13.5,3.6-20.2,0-3.1-1.9-4.9-4.3-4.9v-5.5c-.6-4.9-7.3-4.9-7.3,0,0,10.4-1.2,20.8-2.4,30.6-21.4,77.7-75.3,142.6-134.6,195.8-51.4,46.6-123.6,110.2-198.3,104.7h-.5c-6.8-13.5-18.4-24.5-28.8-35.5-1.9-1.9-6.8-1.9-8,1.2-10.4,23.3-22.6,46.5-30.6,71-1.3,3.7,1.2,6.1,3.6,6.8Zm9.2-7.5c6.8-19.6,15.9-38.5,24.5-57.5,8.6,9.2,16.5,19,24.5,29.4,2.5,3.6,9.8,1.2,8-3.7h0c33,10.4,69.1-4.9,97.9-21.4,36.7-21.4,70.4-47.1,102.2-75.9,43.5-39.1,87.5-85.7,116.3-138.9-44.1,135.3-162.8,235-309.1,259.5-1.9.6-3.1,1.9-3.1,3.7-1.8.6-3.6,3-2.4,6.1,4.3,8,6.7,15.9,10.4,23.9-23.9-5.5-46.5-16.6-69.2-25.2Z"/>
</svg>