<svg width="119" height="140" viewBox="0 0 119 140" fill="none" xmlns="http://www.w3.org/2000/svg">
<g clip-path="url(#clip0_2_2)">
<path d="M76.0716 71.8861H48.3828C47.6126 71.9618 46.7036 72.0249 45.6556 72.0249H44.8854V75.6583H45.5798V72.1006H76.766V72.0249L76.0716 71.8861Z" fill="#462700"/>
<path d="M48.3828 71.8861H76.0716C74.4681 71.6716 73.2055 71.3941 72.1576 70.839C69.5692 69.6531 68.1046 66.7135 64.6703 58.6771L40.2769 0H36.5649L13.0048 57.4281C9.09072 67.4831 6.28775 70.7759 0.909072 71.8861L0 72.0249V75.6583H23.0677V72.0249H22.1586C18.1057 72.0249 15.0249 69.4386 15.0249 66.1584C15.0249 63.5091 15.2396 62.7395 18.4466 54.9049L20.1258 50.7164H46.6909L51.2363 61.6797C53.2691 66.7135 53.408 67.0542 53.408 68.3915C53.408 69.4386 52.9913 70.2839 52.0822 70.839C51.312 71.3941 50.0494 71.7473 48.3702 71.8861H48.3828ZM21.6031 46.9442L33.3453 18.3058L45.2263 46.9442H21.5905H21.6031Z" fill="#462700"/>
<path d="M117.737 70.8389H95.7177C95.0232 70.8389 94.4551 71.394 94.4551 72.1005V76.4278C94.4551 77.1217 95.6419 77.6894 96.2732 77.6894C99.7706 77.6894 102.005 79.0141 102.005 81.1084C102.005 82.433 101.172 85.1581 99.8337 88.4383L87.5234 117.569L73.5338 85.9908C71.9934 82.6349 71.501 80.4776 71.501 79.6323C71.501 78.3707 73.7358 77.6768 78.0792 77.6768C78.7736 77.6768 79.3418 77.1217 79.3418 76.4152V72.0879C79.3418 71.394 78.7862 70.8263 78.0792 70.8263H45.5672C45.3526 70.8263 45.1506 70.902 45.0117 70.9651C44.9359 70.9651 44.9359 71.0408 44.8728 71.0408C44.5193 71.2552 44.3172 71.6716 44.3172 72.0879V76.4152C44.3172 77.046 45.441 77.6011 46.0596 77.6768C51.2363 77.8913 52.0696 78.3076 55.7816 86.8234C55.9205 87.2397 56.0594 87.593 56.1983 87.9462L56.4761 88.6401L78.8493 139.293C79.064 139.71 79.5438 139.987 80.0362 139.987H84.9351C85.4275 139.987 85.9199 139.71 86.1219 139.218L105.768 93.0431C111.576 79.279 112.826 77.9543 116.462 77.6768H117.725C118.419 77.6768 118.987 77.1217 118.987 76.4152V72.0879C118.987 71.394 118.432 70.8263 117.725 70.8263L117.737 70.8389ZM117.737 76.4278H116.475C111.866 76.7811 110.389 78.7365 104.657 92.5637L84.9351 138.738H80.0362L57.5872 88.1607C57.5114 87.7444 57.2336 87.1767 57.0316 86.4828C53.1807 77.7525 52.1327 76.7054 46.1228 76.4278H45.5672V72.1005H78.0792V76.4278H77.5236C72.7636 76.4278 70.251 77.4749 70.251 79.6449C70.251 80.9065 71.0212 83.4171 72.4227 86.4954L87.5992 120.723L101.021 88.9303C102.346 85.5744 103.255 82.6475 103.255 81.1084C103.255 78.2445 100.528 76.4278 96.2606 76.4278H95.705V72.1005H117.725V76.4278H117.737Z" fill="#462700"/>
</g>
<defs>
<clipPath id="clip0_2_2">
<rect width="119" height="140" fill="white"/>
</clipPath>
</defs>
</svg>
