<svg width="24" height="28" viewBox="0 0 24 28" fill="none" xmlns="http://www.w3.org/2000/svg">
<path d="M15.3422 14.3772H9.75788C9.60255 14.3924 9.41921 14.405 9.20785 14.405H9.05252V15.1317H9.19257V14.4201H15.4822V14.405L15.3422 14.3772Z" fill="#462700"/>
<path d="M9.75788 14.3772H15.3422C15.0188 14.3343 14.7641 14.2788 14.5528 14.1678C14.0308 13.9306 13.7354 13.3427 13.0428 11.7354L8.12308 0H7.37443L2.62281 11.4856C1.83342 13.4966 1.26812 14.1552 0.183342 14.3772L0 14.405V15.1317H4.65231V14.405H4.46897C3.65156 14.405 3.03024 13.8877 3.03024 13.2317C3.03024 12.7018 3.07353 12.5479 3.72032 10.981L4.05899 10.1433H9.41666L10.3334 12.3359C10.7433 13.3427 10.7714 13.4108 10.7714 13.6783C10.7714 13.8877 10.6873 14.0568 10.504 14.1678C10.3486 14.2788 10.094 14.3495 9.75533 14.3772H9.75788ZM4.35692 9.38884L6.72509 3.66117L9.12127 9.38884H4.35438H4.35692Z" fill="#462700"/>
<path d="M23.7454 14.1678H19.3044C19.1643 14.1678 19.0498 14.2788 19.0498 14.4201V15.2856C19.0498 15.4244 19.2891 15.5379 19.4164 15.5379C20.1218 15.5379 20.5725 15.8028 20.5725 16.2217C20.5725 16.4866 20.4045 17.0316 20.1345 17.6877L17.6518 23.5138L14.8303 17.1982C14.5197 16.527 14.4204 16.0955 14.4204 15.9265C14.4204 15.6742 14.8711 15.5354 15.7471 15.5354C15.8871 15.5354 16.0017 15.4244 16.0017 15.2831V14.4176C16.0017 14.2788 15.8897 14.1653 15.7471 14.1653H9.19002C9.14673 14.1653 9.10599 14.1804 9.07798 14.193C9.0627 14.193 9.0627 14.2082 9.04997 14.2082C8.97867 14.2511 8.93793 14.3343 8.93793 14.4176V15.2831C8.93793 15.4092 9.16456 15.5202 9.28933 15.5354C10.3334 15.5783 10.5014 15.6615 11.2501 17.3647C11.2781 17.448 11.3061 17.5186 11.3341 17.5893L11.3901 17.728L15.9024 27.8587C15.9457 27.942 16.0424 27.9975 16.1417 27.9975H17.1298C17.2291 27.9975 17.3284 27.942 17.3691 27.8436L21.3313 18.6086C22.5027 15.8558 22.7548 15.5909 23.4882 15.5354H23.7428C23.8829 15.5354 23.9974 15.4244 23.9974 15.2831V14.4176C23.9974 14.2788 23.8854 14.1653 23.7428 14.1653L23.7454 14.1678ZM23.7454 15.2856H23.4907C22.5613 15.3562 22.2633 15.7473 21.1073 18.5128L17.1298 27.7477H16.1417L11.6142 17.6322C11.5989 17.5489 11.5429 17.4354 11.5022 17.2966C10.7255 15.5505 10.5142 15.3411 9.30207 15.2856H9.19002V14.4201H15.7471V15.2856H15.635C14.675 15.2856 14.1683 15.495 14.1683 15.929C14.1683 16.1813 14.3236 16.6834 14.6063 17.2991L17.6671 24.1446L20.3739 17.7861C20.6413 17.1149 20.8246 16.5295 20.8246 16.2217C20.8246 15.6489 20.2746 15.2856 19.4139 15.2856H19.3019V14.4201H23.7428V15.2856H23.7454Z" fill="#462700"/>
</svg>
