<svg width="28" height="28" viewBox="0 0 28 28" fill="none" xmlns="http://www.w3.org/2000/svg">
<path d="M6.73804 9.51656C6.73829 9.51656 6.73771 9.51656 6.73804 9.51656H1.25003C0.871413 9.51631 0.564384 9.82006 0.564133 10.1949C0.564133 10.1946 0.564133 10.1952 0.564133 10.1949V26.4947C0.563881 26.8696 0.870659 27.1736 1.24919 27.1738C1.24894 27.1738 1.24953 27.1738 1.24919 27.1738H6.7372C7.11582 27.1741 7.42285 26.8703 7.4231 26.4954C7.4231 26.4957 7.4231 26.4952 7.4231 26.4954V10.1957C7.42335 9.8208 7.11657 9.5168 6.73804 9.51656ZM6.05131 25.8156H1.93593V10.8748H6.05131V25.8156ZM21.141 9.51656C19.6529 9.51664 18.2063 10.0029 17.0257 10.9V10.1957C17.0259 9.8208 16.7191 9.5168 16.3406 9.51656C16.3408 9.51656 16.3403 9.51656 16.3406 9.51656H10.8526C10.474 9.51631 10.1669 9.82006 10.1667 10.1949C10.1667 10.1946 10.1667 10.1952 10.1667 10.1949V26.4947C10.1664 26.8696 10.4732 27.1736 10.8518 27.1738C10.8516 27.1738 10.8521 27.1738 10.8518 27.1738H16.3398C16.7184 27.1741 17.0254 26.8703 17.0257 26.4954C17.0257 26.4957 17.0257 26.4952 17.0257 26.4954V19.0243C17.0257 17.8991 17.9469 16.9869 19.0833 16.9869C20.2198 16.9869 21.141 17.8991 21.141 19.0243V26.4947C21.1408 26.8696 21.4476 27.1736 21.8262 27.1738C21.8259 27.1738 21.8264 27.1738 21.8262 27.1738H27.3141C27.6927 27.1741 27.9997 26.8703 28 26.4954C28 26.4957 28 26.4952 28 26.4954V16.3078C27.9956 12.5589 24.9273 9.52095 21.141 9.51656ZM26.6282 25.8156H22.5128V19.0243C22.5128 17.1489 20.9774 15.6287 19.0833 15.6287C17.1893 15.6287 15.6539 17.1489 15.6539 19.0243V25.8156H11.5385V10.8748H15.6539V12.509C15.6539 12.7975 15.8382 13.0545 16.1134 13.1496C16.388 13.2476 16.6951 13.1605 16.8757 12.9334C18.7448 10.588 22.1803 10.187 24.5492 12.0377C25.8686 13.0687 26.6355 14.6436 26.6282 16.3078V25.8156ZM4.49841 0.0112827C4.33707 9.09691e-05 4.17514 -0.00073791 4.01371 0.00879566C1.94329 -0.131224 0.150267 1.41712 0.00885092 3.4671C0.00315743 3.54958 0.00031074 3.63215 0.000143244 3.71481C-0.0176908 5.74737 1.63199 7.40938 3.68483 7.42703C3.76864 7.42778 3.85237 7.42562 3.93601 7.42073H3.97486C6.04134 7.5639 7.8337 6.02128 7.9783 3.9752C8.12289 1.92912 6.56489 0.154453 4.49841 0.0112827ZM4.45102 6.06638C4.29261 6.0808 4.13302 6.07956 3.97486 6.06248H3.93601C2.62442 6.1623 1.47953 5.19053 1.37872 3.89188C1.27791 2.59332 2.25937 1.45965 3.57096 1.35983C3.71849 1.34864 3.86668 1.35105 4.01371 1.36705C5.3243 1.2475 6.48468 2.20252 6.6055 3.50018C6.72623 4.79791 5.76169 5.94684 4.45102 6.06638Z" fill="#462700"/>
</svg>
