<svg width="27" height="27" viewBox="0 0 27 27" fill="none" xmlns="http://www.w3.org/2000/svg">
<path d="M16.7217 26.3215H9.42494C2.8214 26.3215 0 23.482 0 16.8359V9.49221C0 2.84616 2.8214 0.0065918 9.42494 0.0065918H16.7217C23.3252 0.0065918 26.1466 2.84616 26.1466 9.49221V16.8359C26.1466 23.482 23.3252 26.3215 16.7217 26.3215ZM9.42494 1.84252C3.81862 1.84252 1.82418 3.8498 1.82418 9.49221V16.8359C1.82418 22.4783 3.81862 24.4856 9.42494 24.4856H16.7217C22.328 24.4856 24.3224 22.4783 24.3224 16.8359V9.49221C24.3224 3.8498 22.328 1.84252 16.7217 1.84252H9.42494Z" fill="#462700"/>
<path d="M13.0733 18.3659C10.2275 18.3659 7.90474 16.0281 7.90474 13.1641C7.90474 10.3 10.2275 7.96228 13.0733 7.96228C15.919 7.96228 18.2418 10.3 18.2418 13.1641C18.2418 16.0281 15.919 18.3659 13.0733 18.3659ZM13.0733 9.79821C11.2248 9.79821 9.72892 11.3037 9.72892 13.1641C9.72892 15.0245 11.2248 16.5299 13.0733 16.5299C14.9218 16.5299 16.4176 15.0245 16.4176 13.1641C16.4176 11.3037 14.9218 9.79821 13.0733 9.79821Z" fill="#462700"/>
<path d="M19.1539 7.65613C18.9958 7.65613 18.8377 7.61941 18.6917 7.55822C18.5458 7.49702 18.412 7.41134 18.2904 7.30119C18.181 7.17879 18.0837 7.04416 18.0229 6.89728C17.9621 6.75041 17.9378 6.5913 17.9378 6.43218C17.9378 6.27307 17.9621 6.11396 18.0229 5.96708C18.0958 5.80797 18.181 5.68557 18.2904 5.56318C18.3512 5.51422 18.412 5.45302 18.4728 5.4163C18.5458 5.36734 18.6188 5.33063 18.6917 5.30615C18.7647 5.26943 18.8377 5.24495 18.9228 5.23271C19.312 5.14703 19.7255 5.28167 20.0173 5.56318C20.1268 5.68557 20.2119 5.80797 20.2727 5.96708C20.3335 6.11396 20.37 6.27307 20.37 6.43218C20.37 6.5913 20.3335 6.75041 20.2727 6.89728C20.2119 7.04416 20.1268 7.17879 20.0173 7.30119C19.8957 7.41134 19.7619 7.49702 19.616 7.55822C19.4701 7.61941 19.312 7.65613 19.1539 7.65613Z" fill="#462700"/>
</svg>
